<?xml version="1.0" encoding="utf-8"?>
<!-- Generator: Adobe Illustrator 17.0.0, SVG Export Plug-In . SVG Version: 6.00 Build 0)  -->
<!DOCTYPE svg PUBLIC "-//W3C//DTD SVG 1.1//EN" "http://www.w3.org/Graphics/SVG/1.1/DTD/svg11.dtd">
<svg version="1.1" id="Layer_1" xmlns="http://www.w3.org/2000/svg" xmlns:xlink="http://www.w3.org/1999/xlink" x="0px" y="0px"
	 width="551.386px" height="161.464px" viewBox="0 0 551.386 161.464" enable-background="new 0 0 551.386 161.464"
	 xml:space="preserve">
<polygon fill="#E7E5E4" points="294.033,103.537 289.784,103.537 290.633,120.931 293.283,120.931 "/>
<polygon fill="#E7E5E4" points="286.286,103.537 287.135,120.931 289.784,120.931 290.534,103.537 "/>
<polygon fill="#6A6A6A" points="295.411,104.887 297.304,104.923 297.573,92.265 294.19,92.379 "/>
<polygon fill="#6A6A6A" points="276.848,103.605 278.438,104.64 285.382,94.028 282.448,92.331 "/>
<path fill="#6A6A6A" d="M297.431,90.393c-0.45-0.45-0.949-0.649-1.6-0.649c-0.649,0-1.149,0.2-1.6,0.649
	c-0.449,0.45-0.649,0.95-0.649,1.6c0,0.649,0.2,1.149,0.649,1.599c0.45,0.45,0.95,0.65,1.6,0.65s1.149-0.2,1.6-0.65
	s0.649-0.95,0.649-1.599C298.081,91.342,297.881,90.842,297.431,90.393L297.431,90.393z"/>
<path fill="#6A6A6A" d="M286.085,90.493c-0.449-0.45-0.949-0.65-1.6-0.65c-0.649,0-1.149,0.2-1.599,0.65
	c-0.45,0.45-0.65,0.95-0.65,1.599c0,0.65,0.2,1.15,0.65,1.6c0.449,0.45,0.949,0.649,1.599,0.649s1.15-0.2,1.6-0.649
	c0.45-0.45,0.649-0.95,0.649-1.6C286.735,91.442,286.536,90.942,286.085,90.493L286.085,90.493z"/>
<polygon fill="#6A6A6A" points="293.932,104.237 295.631,90.343 284.836,90.343 286.335,104.237 "/>
<path fill="#CDCBCC" d="M292.633,83.735c-0.15-0.174-0.25-0.29-0.4-0.462c-0.6-0.637-1.299-0.927-2.148-0.927
	c-1,0-1.85,0.462-2.6,1.389c-0.699,0.927-1.05,2.028-1.05,3.359c0,1.331,0.351,2.432,1.05,3.359c0.25,0.29,0.5,0.579,0.8,0.811
	c0.55,0.406,1.149,0.579,1.8,0.579c0.999,0,1.849-0.462,2.549-1.389c0.749-0.927,1.1-2.028,1.1-3.359
	C293.734,85.764,293.382,84.662,292.633,83.735L292.633,83.735z"/>
<polygon fill="#FFFFFF" points="272.441,95.44 269.243,83.146 262.245,83.045 258.846,95.241 "/>
<polygon fill="#CDCBCC" points="267.143,95.641 266.444,89.143 264.745,89.243 264.145,95.641 "/>
<polygon fill="#CDCBCC" points="260.846,107.636 261.346,94.441 258.647,94.441 259.046,107.636 "/>
<polygon fill="#CDCBCC" points="279.232,103.25 272.351,92.476 270.138,94.014 277.838,104.218 "/>
<path fill="#FFFFFF" d="M262.645,102.138c-6.748,3.149-9.946,9.247-9.496,18.393h25.689c0.35-9.946-3.049-16.094-10.296-18.393
	H262.645L262.645,102.138z"/>
<polygon fill="#FFFFFF" points="270.542,94.076 270.542,93.242 261.145,93.242 261.145,94.076 263.344,104.037 267.743,104.037 "/>
<path fill="#FFFFFF" d="M273.141,91.842c-0.5-0.5-1.1-0.75-1.8-0.75c-0.699,0-1.299,0.25-1.799,0.75s-0.75,1.1-0.75,1.8
	c0,0.699,0.25,1.299,0.75,1.799s1.1,0.75,1.799,0.75c0.7,0,1.3-0.25,1.8-0.75c0.499-0.5,0.749-1.1,0.749-1.799
	C273.89,92.941,273.64,92.342,273.141,91.842L273.141,91.842z"/>
<path fill="#FFFFFF" d="M261.995,91.992c-0.499-0.5-1.1-0.75-1.799-0.75s-1.299,0.25-1.799,0.75s-0.75,1.1-0.75,1.799
	c0,0.7,0.25,1.3,0.75,1.8s1.1,0.75,1.799,0.75s1.3-0.25,1.799-0.75c0.5-0.5,0.75-1.1,0.75-1.8
	C262.745,93.092,262.495,92.492,261.995,91.992L261.995,91.992z"/>
<path fill="#CDCBCC" d="M265.744,82.346c-0.05,0-0.05,0-0.1,0c-0.851,0.05-1.6,0.45-2.249,1.3c-0.65,0.899-0.95,1.999-0.95,3.249
	s0.3,2.349,0.95,3.199c0.649,0.899,1.449,1.35,2.349,1.35c0.25,0,0.5-0.05,0.75-0.1c0.55-0.15,1.1-0.6,1.55-1.25
	c0.648-0.85,0.999-1.949,0.999-3.199s-0.351-2.349-0.999-3.249C267.393,82.796,266.643,82.346,265.744,82.346L265.744,82.346z"/>
<path fill="#FFFFFF" d="M262.245,83.045c0,0,3.236-2.672,6.998,0.101C269.243,83.146,265.672,86.421,262.245,83.045z"/>
<polygon fill="#7E8083" points="286.119,102.232 285.468,107.98 284.836,113.565 296.276,113.565 295.26,108.694 295.007,107.482 
	294.473,104.923 294.033,102.813 "/>
<polygon opacity="0.7" fill="#5C5D60" points="285.836,104.729 294.502,105.062 294.702,106.022 285.737,105.603 "/>
<polygon opacity="0.5" fill="#5C5D60" points="285.583,106.961 285.468,107.98 295.187,108.342 294.953,107.221 "/>
<polygon opacity="0.7" fill="#5C5D60" points="285.322,109.274 295.533,110.001 295.759,111.085 285.208,110.278 "/>
<polygon opacity="0.5" fill="#5C5D60" points="285.044,111.732 295.999,112.234 296.167,113.041 284.895,113.041 "/>
<polygon opacity="0.5" fill="#5C5D60" points="286.022,103.088 294.184,103.537 294.33,104.237 285.907,104.105 "/>
<polygon opacity="0.7" fill="#5C5D60" points="286.819,102.283 285.63,113.565 285.985,113.565 287.071,102.302 "/>
<polygon opacity="0.5" fill="#5C5D60" points="288.11,102.378 287.214,113.565 287.443,113.565 288.298,102.392 "/>
<polygon opacity="0.6" fill="#5C5D60" points="290.668,102.566 290.234,113.565 290.327,113.565 290.841,102.579 "/>
<polygon opacity="0.5" fill="#5C5D60" points="291.909,102.657 291.797,113.565 292.235,113.565 292.13,102.657 "/>
<g>
	<path fill="#4E4C4E" d="M288.41,119.742c-0.966,0-1.749,0.606-1.749,1.354h3.498C290.159,120.349,289.376,119.742,288.41,119.742z"
		/>
</g>
<g>
	<path fill="#4E4C4E" d="M292.051,119.742c-0.966,0-1.749,0.606-1.749,1.354h3.498C293.8,120.349,293.017,119.742,292.051,119.742z"
		/>
</g>
<polygon opacity="0.8" fill="#5C5D60" points="293.322,102.761 294.33,113.565 294.702,113.565 293.486,102.773 "/>
<path fill="#4E4C4E" d="M289.563,91.802l-0.469,7.055l1.374,1.375l0.607-0.75l-0.592-7.639
	C290.484,91.843,289.995,91.904,289.563,91.802z"/>
<ellipse fill="#4E4C4E" cx="290.327" cy="106.937" rx="1.677" ry="1.83"/>
<polyline fill="#4E4C4E" points="286.119,102.232 286.144,102.267 289.094,106.253 289.094,105.878 286.286,102.283 "/>
<polygon fill="#4E4C4E" points="291.339,105.815 293.652,102.785 293.859,102.8 291.443,106.022 "/>
</svg>
